<svg id="Layer_1" data-name="Layer 1" xmlns="http://www.w3.org/2000/svg" xmlns:xlink="http://www.w3.org/1999/xlink" viewBox="0 0 1852.7 660.65"><defs><style>.cls-1{fill:url(#linear-gradient);}</style><linearGradient id="linear-gradient" x1="212.88" y1="668.33" x2="212.88" y2="7.67" gradientUnits="userSpaceOnUse"><stop offset="0" stop-color="#e09b3d"/><stop offset="0.3" stop-color="#c74c4d"/><stop offset="0.6" stop-color="#c21975"/><stop offset="1" stop-color="#7024c4"/></linearGradient></defs><path d="M566.42,465.06a81.12,81.12,0,0,0-2.86,19.27q-.46,11.21,9.53,22.14l-1.91,7.62q-10.47,1.42-19.28,2.14a132.58,132.58,0,0,1-17.85.24,96.73,96.73,0,0,1-25.71-4.05,36.32,36.32,0,0,1-18.09-11.9q-6.66-8.32-8.09-22.14T486,443.63l58.08-217.07q.94-4.29,2.14-10.48a110.12,110.12,0,0,0,1.67-12.85,88.86,88.86,0,0,0,0-12.85,37.5,37.5,0,0,0-1.91-10q-3.81-8.08-11.9-5.71l-1.9-3.81a77.54,77.54,0,0,1,22.61-11.43,79.18,79.18,0,0,1,24.51-4.28q18.09,0,29,8.09A48.43,48.43,0,0,1,624.5,184,75.14,75.14,0,0,1,630,211.8a107.33,107.33,0,0,1-3.57,29.51Z" transform="translate(-6.65 -7.67)"/><path d="M926.31,437.44q-6.19,23.82-15,39.28t-20,25a64.74,64.74,0,0,1-25,13.33,112.5,112.5,0,0,1-30,3.81q-38.57,0-55-17.61T772.07,446q1.42-8.56,4.28-19.28t6-21.66q3.09-10.94,6.18-21.42t5.48-19q3.79-13.8-.72-25t-13.56-13.57q-10-3.33-23.09,8.81t-23.09,46.89v.95l-22.85,82.36a81.12,81.12,0,0,0-2.86,19.27q-.48,11.21,9.05,22.14l-1.43,7.62q-10.47,1.42-19.52,2.14a130.08,130.08,0,0,1-17.61.24,98.19,98.19,0,0,1-26.18-4.05A36.28,36.28,0,0,1,634,500.52q-6.66-8.32-8.1-22.14t3.81-34.75l20.47-75.69a65.24,65.24,0,0,0,2.38-10.47q.95-6.18,1.43-12.85a121.52,121.52,0,0,0,.24-12.86,24.94,24.94,0,0,0-2.14-10q-2.86-8.1-11.9-5.72l-1.91-3.81a91.28,91.28,0,0,1,22.85-11.66,66.61,66.61,0,0,1,24.76-4.05q12.36,0,21.42,4.05a43.85,43.85,0,0,1,15,10.71,52.93,52.93,0,0,1,9.52,15.47,66.83,66.83,0,0,1,4.53,18.81A80.51,80.51,0,0,1,753.27,322a96.57,96.57,0,0,1,22.13-15.94,88.77,88.77,0,0,1,24.52-8.57,82.78,82.78,0,0,1,25-1,68.48,68.48,0,0,1,25.71,7.86,56.57,56.57,0,0,1,19.52,17.14q7.61,10.71,9.28,26.18t-4.52,35q-.48,1.91-3.57,13.09l-6.67,24q-3.57,12.85-6.43,24c-1.9,7.46-3,11.66-3.33,12.62q-2.85,10.47,1.43,17.13a22.45,22.45,0,0,0,29.52,6.91,57.25,57.25,0,0,0,15-12.38,90.2,90.2,0,0,0,11.66-16.66A79.82,79.82,0,0,0,919.17,436Z" transform="translate(-6.65 -7.67)"/><path d="M1079.59,308.91h-45.22l-60,249.93a188.86,188.86,0,0,1-12.14,35.22,79.76,79.76,0,0,1-21.18,28.33q-13.34,11.18-32.85,13.8t-47.61-8.33c-.63-.32-1.11-1.27-1.42-2.85a6.56,6.56,0,0,0-1.43-3.34,53.06,53.06,0,0,0,8.09-9.75,136.11,136.11,0,0,0,9.52-16.43,218.47,218.47,0,0,0,9-20.94,200.7,200.7,0,0,0,7.14-23.33l57.12-241.83H921.55l4.76-18.57H953l9-38.08q7.14-29,20.71-49.27t30.7-32.85a113.15,113.15,0,0,1,36.66-18.09,128.93,128.93,0,0,1,38.08-5,109.3,109.3,0,0,1,31.66,5.48,82.42,82.42,0,0,1,25.71,13.56,59.75,59.75,0,0,1,16.42,20,41.13,41.13,0,0,1,3.81,24.75q-2.38,18.57-12.38,28.09a55.9,55.9,0,0,1-22.61,13.33,75.8,75.8,0,0,1-25,3.33q-12.39-.47-18.57-1.9l-1.43-5.72q9.53-5.7,14.28-17.37a90.93,90.93,0,0,0,6.19-24q1.9-15.72-2.14-28.33T1091.5,166.1q-11,0-21.9,20.23T1049.13,248l-10.47,42.84h45.7Z" transform="translate(-6.65 -7.67)"/><path d="M1250.5,349.85a81.6,81.6,0,0,0,2.85-19.28q.47-11.18-9.52-22.13l1.9-7.62q10.47-1.43,19.52-2.14a131.86,131.86,0,0,1,17.62-.24,98.32,98.32,0,0,1,26.18,4.05,36.39,36.39,0,0,1,18.09,11.9q6.66,8.33,8.09,22.37T1331,371.27q-6.2,21.44-11.67,42.61t-11.18,42.61q-2.86,10.47,1.42,17.13a21.44,21.44,0,0,0,12.86,9.05,21.92,21.92,0,0,0,16.9-2.14,52.52,52.52,0,0,0,15-12.38,109.48,109.48,0,0,0,11.67-16.66,73.22,73.22,0,0,0,6.9-15.47l6.66,1.42q-6.66,23.82-15.47,39.28t-20,25a64.74,64.74,0,0,1-25,13.33,112.53,112.53,0,0,1-30,3.81q-30.94,0-47.6-11.19t-18.57-35.46a93.09,93.09,0,0,1-17.13,22.37,86.45,86.45,0,0,1-21.66,15.23,88.88,88.88,0,0,1-24.28,7.86,84.87,84.87,0,0,1-24.52.71,66.89,66.89,0,0,1-25.23-7.61,51.37,51.37,0,0,1-18.56-16.9q-7.15-10.71-9.29-26.19t3.1-35.46l17.61-64.27a65.24,65.24,0,0,0,2.38-10.47q.95-6.18,1.43-12.85a121.52,121.52,0,0,0,.24-12.86,24.76,24.76,0,0,0-2.15-10q-3.33-7.62-11.9-5.72l-1.9-3.81a85.61,85.61,0,0,1,22.85-11.42,78.07,78.07,0,0,1,24.75-4.29q17.61,0,28.8,8.1a47.77,47.77,0,0,1,16.43,20.71,75.09,75.09,0,0,1,5.47,27.84,107.4,107.4,0,0,1-3.57,29.52l-19,67.6q-3.81,13.81.71,25T1181,488.86a20.28,20.28,0,0,0,11.43-.48q6.18-1.89,12.37-8.8t12.14-18.81q6-11.89,10.71-30,4.75-17.14,9-32.85,3.81-13.32,7.38-26.66t6-21.42Z" transform="translate(-6.65 -7.67)"/><path d="M1379,379.37a107.79,107.79,0,0,1,21.9-37.61,125.89,125.89,0,0,1,32.37-25.71,149.75,149.75,0,0,1,38.32-14.75,175.4,175.4,0,0,1,40.23-4.77q20.94,0,37.61,6.19t28.08,16.19a60.67,60.67,0,0,1,16.67,22.85,53.39,53.39,0,0,1,3.8,26.18q-1.43,12.85-10,25.23t-25.23,22.38q-16.68,10-41.66,15.94t-59.27,5q7.62,33.33,47.13,43.32,19.51,5.25,36.18,1.67a81.88,81.88,0,0,0,29.76-12.62,86.54,86.54,0,0,0,22.37-22.61,105.68,105.68,0,0,0,14-29.28l9.52,2.86a106.74,106.74,0,0,1-20,42.37,132.48,132.48,0,0,1-33.56,30.23,153.85,153.85,0,0,1-42.37,18.33,167.44,167.44,0,0,1-46.89,5.71q-31.43-.47-54.75-10.24t-36.65-27.61q-13.34-17.85-15.71-43.08T1379,379.37Zm80.93,45.7a50,50,0,0,0,27.13-8.57,83.56,83.56,0,0,0,20.48-19.76,108.45,108.45,0,0,0,13.8-25.23A126.78,126.78,0,0,0,1528.5,346q1.9-11.9.24-20.23t-6.43-9.76q-5.71-1.43-13.09,1.19T1493.75,328q-8.1,8.1-15.71,22.38t-13.33,36.18a198,198,0,0,0-4.28,20.47A69.21,69.21,0,0,0,1460,425.07Z" transform="translate(-6.65 -7.67)"/><path d="M1617.52,379.37a107.64,107.64,0,0,1,21.9-37.61,125.72,125.72,0,0,1,32.37-25.71,149.75,149.75,0,0,1,38.32-14.75,175.4,175.4,0,0,1,40.23-4.77q20.94,0,37.6,6.19A89.45,89.45,0,0,1,1816,318.91a60.54,60.54,0,0,1,16.66,22.85,53.39,53.39,0,0,1,3.81,26.18q-1.43,12.85-10,25.23t-25.23,22.38q-16.66,10-41.65,15.94t-59.27,5q7.61,33.33,47.13,43.32,19.51,5.25,36.18,1.67a81.83,81.83,0,0,0,29.75-12.62,86.43,86.43,0,0,0,22.38-22.61,106.25,106.25,0,0,0,14-29.28l9.52,2.86a106.88,106.88,0,0,1-20,42.37,132.35,132.35,0,0,1-33.57,30.23,153.79,153.79,0,0,1-42.36,18.33,167.48,167.48,0,0,1-46.89,5.71q-31.43-.47-54.75-10.24t-36.65-27.61q-13.34-17.85-15.71-43.08T1617.52,379.37Zm80.93,45.7a50,50,0,0,0,27.13-8.57,83.35,83.35,0,0,0,20.47-19.76,108.48,108.48,0,0,0,13.81-25.23A126.78,126.78,0,0,0,1767,346q1.89-11.9.24-20.23t-6.43-9.76q-5.71-1.43-13.09,1.19T1732.25,328q-8.1,8.1-15.71,22.38t-13.33,36.18a198.21,198.21,0,0,0-4.29,20.47A69.63,69.63,0,0,0,1698.45,425.07Z" transform="translate(-6.65 -7.67)"/><path class="cls-1" d="M225.29,518.23q-57.51-5.51-91.2-52.79t-33.68-123.3a358.31,358.31,0,0,1,23.44-128Q147.28,152.26,193,98.68q37.42-43.74,74.85-67.37T336.78,7.67q41,0,61.65,26t20.69,78.79q0,22.86-4.54,57.32t-14.77,89.63Q387.19,326,373,380.15t-29.16,92q-37.81,99.27-92.58,147.73T122.08,668.33q-53.58,0-84.5-21.27T6.65,589.14q0-19.29,7.68-31.91t19.9-13.79q12.6,24.43,31.91,35.85t48.06,11.43q35.85,0,65-18.91T225.29,518.23Zm25.22-52.39q35.06-112.66,55.35-212.74T326.14,105q0-10.64-4.13-16.55t-12-5.91q-13,0-30.53,19.7T243,157.37a584.41,584.41,0,0,0-42.94,111.3q-15,55.74-15,105,0,38.63,16.74,62.25T250.51,465.84Z" transform="translate(-6.65 -7.67)"/></svg>