<svg width="22" height="22" viewBox="0 0 22 22" fill="none" xmlns="http://www.w3.org/2000/svg">
<rect width="22" height="22" fill="white"/>
<path d="M10.9418 6.47974C8.22578 6.47974 5.97534 8.69138 5.97534 11.4462C5.97534 14.2011 8.18698 16.4127 10.9418 16.4127C13.6967 16.4127 15.9083 14.1623 15.9083 11.4462C15.9083 8.73018 13.6579 6.47974 10.9418 6.47974ZM10.9418 14.6279C9.1958 14.6279 7.76017 13.1923 7.76017 11.4462C7.76017 9.7002 9.1958 8.26457 10.9418 8.26457C12.6879 8.26457 14.1235 9.7002 14.1235 11.4462C14.1235 13.1923 12.6879 14.6279 10.9418 14.6279Z" fill="url(#paint0_linear)"/>
<path d="M16.1023 7.48854C16.7237 7.48854 17.2275 6.98476 17.2275 6.36332C17.2275 5.74188 16.7237 5.2381 16.1023 5.2381C15.4808 5.2381 14.9771 5.74188 14.9771 6.36332C14.9771 6.98476 15.4808 7.48854 16.1023 7.48854Z" fill="url(#paint1_linear)"/>
<path d="M19.0123 3.45326C18.0035 2.40564 16.5679 1.86243 14.9383 1.86243H6.94532C3.56965 1.86243 1.31921 4.11287 1.31921 7.48853V15.4427C1.31921 17.1111 1.86242 18.5467 2.94884 19.5943C3.99646 20.6032 5.39329 21.1076 6.98412 21.1076H14.8995C16.5679 21.1076 17.9647 20.5644 18.9735 19.5943C20.0212 18.5855 20.5644 17.1499 20.5644 15.4815V7.48853C20.5644 5.8589 20.0212 4.46207 19.0123 3.45326ZM18.8571 15.4815C18.8571 16.6843 18.4303 17.6543 17.7319 18.3139C17.0335 18.9735 16.0635 19.3227 14.8995 19.3227H6.98412C5.8201 19.3227 4.85008 18.9735 4.15167 18.3139C3.45325 17.6155 3.10405 16.6455 3.10405 15.4427V7.48853C3.10405 6.32451 3.45325 5.35449 4.15167 4.65608C4.81128 3.99647 5.8201 3.64726 6.98412 3.64726H14.9771C16.1411 3.64726 17.1111 3.99647 17.8095 4.69488C18.4691 5.39329 18.8571 6.36331 18.8571 7.48853V15.4815Z" fill="url(#paint2_linear)"/>
<defs>
<linearGradient id="paint0_linear" x1="10.9418" y1="6.47974" x2="10.9418" y2="16.4127" gradientUnits="userSpaceOnUse">
<stop stop-color="#7724BC"/>
<stop offset="0.489583" stop-color="#C43263"/>
<stop offset="1" stop-color="#DC8C42"/>
</linearGradient>
<linearGradient id="paint1_linear" x1="16.1023" y1="5.2381" x2="16.1023" y2="7.48854" gradientUnits="userSpaceOnUse">
<stop stop-color="#7724BC"/>
<stop offset="0.489583" stop-color="#C43263"/>
<stop offset="1" stop-color="#DC8C42"/>
</linearGradient>
<linearGradient id="paint2_linear" x1="10.9418" y1="1.86243" x2="10.9418" y2="21.1076" gradientUnits="userSpaceOnUse">
<stop stop-color="#7724BC"/>
<stop offset="0.489583" stop-color="#C43263"/>
<stop offset="1" stop-color="#DC8C42"/>
</linearGradient>
</defs>
</svg>
