<svg width="16" height="18" viewBox="0 0 16 18" fill="none" xmlns="http://www.w3.org/2000/svg">
<path d="M8.16894 0H11.199C11.199 0 11.0309 3.89265 15.4074 4.16585V7.17489C15.4074 7.17489 13.0718 7.32151 11.199 5.89152L11.2317 12.1041C11.2317 13.2148 10.9024 14.3006 10.2853 15.2241C9.66827 16.1476 8.79122 16.8674 7.76508 17.2925C6.73895 17.7175 5.60981 17.8288 4.52045 17.6121C3.43109 17.3955 2.43044 16.8607 1.64503 16.0753C0.859612 15.29 0.324714 14.2894 0.10797 13.2C-0.108775 12.1107 0.00236771 10.9815 0.427345 9.95536C0.852321 8.92918 1.57204 8.05207 2.49551 7.43493C3.41897 6.81779 4.50469 6.48834 5.61538 6.48824H6.4032V9.50071V9.56473C5.88974 9.40464 5.33883 9.41078 4.82908 9.5823C4.31932 9.75381 3.87674 10.0819 3.56449 10.5199C3.25224 10.9578 3.08627 11.4831 3.09024 12.0209C3.09421 12.5588 3.26794 13.0816 3.58662 13.5149C3.90531 13.9481 4.35268 14.2697 4.86492 14.4336C5.37716 14.5976 5.92809 14.5956 6.43913 14.4279C6.95017 14.2603 7.3952 13.9355 7.71075 13.4999C8.02629 13.0644 8.19622 12.5403 8.19631 12.0025L8.16894 0Z" fill="black"/>
</svg>
