<svg width="22" height="22" viewBox="0 0 22 22" fill="none" xmlns="http://www.w3.org/2000/svg">
<path d="M20.5037 5.84607C19.8009 6.15846 19.0446 6.36917 18.2511 6.46347C19.0613 5.9784 19.6826 5.21005 19.9756 4.29346C19.2177 4.74322 18.3787 5.06957 17.485 5.24575C16.7698 4.48361 15.7504 4.00708 14.6224 4.00708C12.4566 4.00708 10.7007 5.76303 10.7007 7.92915C10.7007 8.2361 10.7352 8.53529 10.8023 8.82284C7.54268 8.65908 4.65245 7.09794 2.71799 4.72498C2.38038 5.30396 2.18713 5.97762 2.18713 6.69708C2.18713 8.0576 2.87942 9.25824 3.93183 9.9614C3.28921 9.94083 2.68423 9.76426 2.15531 9.47051C2.15492 9.4868 2.15492 9.50349 2.15492 9.52018C2.15492 11.4201 3.50691 13.0049 5.30127 13.3658C4.9722 13.4551 4.62567 13.5032 4.26788 13.5032C4.01487 13.5032 3.76923 13.4787 3.5298 13.4325C4.02923 14.9906 5.47745 16.1249 7.19343 16.1563C5.85115 17.2083 4.16039 17.8354 2.32256 17.8354C2.0063 17.8354 1.69391 17.8168 1.38696 17.7803C3.12312 18.8936 5.18447 19.5425 7.3991 19.5425C14.6134 19.5425 18.558 13.5664 18.558 8.38356C18.558 8.2136 18.5545 8.04402 18.5471 7.8756C19.3132 7.32379 19.9783 6.63266 20.5037 5.84607Z" fill="#75A7E9"/>
</svg>
