<svg width="22" height="22" viewBox="0 0 22 22" fill="none" xmlns="http://www.w3.org/2000/svg">
<path d="M21.5404 5.70461C21.2874 4.75801 20.542 4.01263 19.5954 3.75963C17.8796 3.29987 11 3.29987 11 3.29987C11 3.29987 4.1204 3.29987 2.40457 3.75963C1.45814 4.01263 0.712594 4.75801 0.459637 5.70461C0 7.42027 0 11 0 11C0 11 0 14.5796 0.459637 16.2951C0.712594 17.2417 1.45814 17.9873 2.40457 18.2403C4.1204 18.6999 11 18.6999 11 18.6999C11 18.6999 17.8796 18.6999 19.5954 18.2403C20.542 17.9873 21.2874 17.2417 21.5404 16.2951C22 14.5796 22 11 22 11C22 11 22 7.42027 21.5404 5.70461ZM8.79987 14.3V7.69991L14.5155 11L8.79987 14.3Z" fill="#F52115"/>
</svg>
